<?xml version="1.0" encoding="UTF-8" standalone="no"?>
<!DOCTYPE svg PUBLIC "-//W3C//DTD SVG 1.1//EN" "http://www.w3.org/Graphics/SVG/1.1/DTD/svg11.dtd">
<svg width="100%" height="100%" viewBox="0 0 33 23" version="1.1" xmlns="http://www.w3.org/2000/svg" xmlns:xlink="http://www.w3.org/1999/xlink" xml:space="preserve" xmlns:serif="http://www.serif.com/" style="fill-rule:evenodd;clip-rule:evenodd;stroke-linecap:round;stroke-linejoin:round;stroke-miterlimit:1.5;">
    <path d="M22,3.031C22,2.492 21.786,1.976 21.405,1.595C21.024,1.214 20.508,1 19.969,1C17.993,1 15.007,1 13.031,1C12.492,1 11.976,1.214 11.595,1.595C11.214,1.976 11,2.492 11,3.031C11,4.762 11,7.238 11,8.969C11,9.508 10.786,10.024 10.405,10.405C10.024,10.786 9.508,11 8.969,11L3.031,11C2.492,11 1.976,11.214 1.595,11.595C1.214,11.976 1,12.492 1,13.031C1,15.007 1,17.993 1,19.969C1,20.508 1.214,21.024 1.595,21.405C1.976,21.786 2.492,22 3.031,22C8.648,22 24.352,22 29.969,22C30.508,22 31.024,21.786 31.405,21.405C31.786,21.024 32,20.508 32,19.969C32,17.993 32,15.007 32,13.031C32,12.492 31.786,11.976 31.405,11.595C31.024,11.214 30.508,11 29.969,11C28.238,11 25.762,11 24.031,11C23.492,11 22.976,10.786 22.595,10.405C22.214,10.024 22,9.508 22,8.969L22,3.031Z" style="fill:rgb(72,72,72);stroke:white;stroke-width:1.2px;"/>
    <g transform="matrix(1,0,0,1,-1,-1)">
        <path d="M17.142,4.716C17.21,4.58 17.348,4.494 17.5,4.494C17.652,4.494 17.79,4.58 17.858,4.716C18.553,6.106 20.074,9.148 20.711,10.421C20.773,10.545 20.766,10.692 20.693,10.81C20.62,10.928 20.491,11 20.353,11C19.02,11 15.98,11 14.647,11C14.509,11 14.38,10.928 14.307,10.81C14.234,10.692 14.227,10.545 14.289,10.421C14.926,9.148 16.447,6.106 17.142,4.716Z" style="fill:white;"/>
    </g>
    <g transform="matrix(-1,1.22465e-16,-1.22465e-16,-1,34,24.0083)">
        <path d="M17.142,4.716C17.21,4.58 17.348,4.494 17.5,4.494C17.652,4.494 17.79,4.58 17.858,4.716C18.553,6.106 20.074,9.148 20.711,10.421C20.773,10.545 20.766,10.692 20.693,10.81C20.62,10.928 20.491,11 20.353,11C19.02,11 15.98,11 14.647,11C14.509,11 14.38,10.928 14.307,10.81C14.234,10.692 14.227,10.545 14.289,10.421C14.926,9.148 16.447,6.106 17.142,4.716Z" style="fill:white;"/>
    </g>
    <g transform="matrix(-1.83697e-16,-1,1,-1.83697e-16,-0.856,34.0083)">
        <path d="M17.142,4.716C17.21,4.58 17.348,4.494 17.5,4.494C17.652,4.494 17.79,4.58 17.858,4.716C18.553,6.106 20.074,9.148 20.711,10.421C20.773,10.545 20.766,10.692 20.693,10.81C20.62,10.928 20.491,11 20.353,11C19.02,11 15.98,11 14.647,11C14.509,11 14.38,10.928 14.307,10.81C14.234,10.692 14.227,10.545 14.289,10.421C14.926,9.148 16.447,6.106 17.142,4.716Z" style="fill:white;"/>
    </g>
    <g transform="matrix(3.06162e-16,1,-1,3.06162e-16,33.979,-0.991713)">
        <path d="M17.142,4.716C17.21,4.58 17.348,4.494 17.5,4.494C17.652,4.494 17.79,4.58 17.858,4.716C18.553,6.106 20.074,9.148 20.711,10.421C20.773,10.545 20.766,10.692 20.693,10.81C20.62,10.928 20.491,11 20.353,11C19.02,11 15.98,11 14.647,11C14.509,11 14.38,10.928 14.307,10.81C14.234,10.692 14.227,10.545 14.289,10.421C14.926,9.148 16.447,6.106 17.142,4.716Z" style="fill:white;"/>
    </g>
</svg>
