<?xml version="1.0" encoding="UTF-8"?>
<svg id="icon" xmlns="http://www.w3.org/2000/svg" width="128" height="128" viewBox="0 0 128 128">
  <path d="M120.005,19.65v66.71c0,6.429-5.211,11.64-11.64,11.64h-4.866c-.265,0-.52-.105-.707-.293l-7-7c-.63-.63-.184-1.707.707-1.707h11.856c1.46,0,2.65-1.19,2.65-2.64V19.64c0-1.45-1.19-2.64-2.65-2.64H41.645c-1.458,0-2.64,1.182-2.64,2.64v12.86c0,.55-.45,1-1,1h-7c-.55,0-1-.45-1-1v-12.86c0-6.429,5.211-11.64,11.64-11.64h66.71c6.434,0,11.65,5.216,11.65,11.65Z" style="fill: #dfe2e5;"/>
  <path d="M62.005,38H20.005c-6.627,0-12,5.373-12,12v42c0,6.627,5.373,12,12,12h14.936c.265,0,.52-.105.707-.293l7-7c.63-.63.184-1.707-.707-1.707h-21.936c-1.66,0-3-1.35-3-3v-42c0-1.657,1.343-3,3-3h42c1.65,0,3,1.34,3,3v9.506c0,.265.105.52.293.707l6.22,6.22c.391.391,1.024.391,1.414,0l.78-.78c.188-.188.293-.442.293-.707v-14.946c0-6.63-5.38-12-12-12Z" style="fill: #dfe2e5;"/>
  <path d="M103.215,104.493c3.52,3.51,3.52,9.21,0,12.73-1.76,1.76-4.06,2.63-6.36,2.63s-4.61-.87-6.37-2.63l-16.846-16.846c-.781-.781-2.047-.781-2.828,0l-16.856,16.847c-1.76,1.76-4.06,2.63-6.36,2.63s-4.61-.87-6.37-2.63c-3.51-3.52-3.51-9.22,0-12.73l16.855-16.846c.781-.781.782-2.048,0-2.829l-16.855-16.855c-3.51-3.52-3.51-9.22,0-12.73s9.22-3.51,12.73,0l16.855,16.855c.781.781,2.048.781,2.829,0l16.846-16.855c3.52-3.51,9.22-3.51,12.73,0,3.52,3.51,3.52,9.21,0,12.73l-16.847,16.856c-.781.781-.781,2.047,0,2.828l16.846,16.846Z" style="fill: #dfe2e5;"/>
</svg>