<?xml version="1.0" encoding="UTF-8"?>
<svg id="icon" xmlns="http://www.w3.org/2000/svg" width="128" height="128" viewBox="0 0 128 128">
  <path d="M8.288,98.187l2.83,18.748c.354,2.594,3.538,3.538,5.306,1.768l13.324-13.441c1.831-1.831,3.223-3.925,4.403-6.131.295-.551.031-1.234-.561-1.431l-23.935-7.978c-.599-.2-1.225.2-1.31.825-.345,2.547-.465,5.094-.058,7.641h0Z" style="fill: #202326;"/>
  <path d="M60.522,21.663c1.179-3.655-.826-7.546-4.362-8.726l-13.913-4.599c-3.655-1.179-7.546.826-8.726,4.362L11.667,78.961c-.173.524.112,1.09.636,1.263l25.219,8.333c.525.174,1.091-.112,1.264-.638L60.522,21.663Z" style="fill: #202326;"/>
  <path d="M115.253,110.803H42.128c-2.477,0-4.599,2.004-4.599,4.599s2.004,4.599,4.599,4.599h73.125c2.477,0,4.599-2.004,4.599-4.599,0-2.594-2.004-4.599-4.598-4.599h0Z" style="fill: #202326;"/>
  <path d="M49.674,94.124c0,2.477,2.004,4.599,4.599,4.599h61.098c2.477,0,4.599-2.004,4.599-4.599s-2.004-4.599-4.599-4.599h-61.098c-2.594,0-4.599,2.005-4.599,4.599h0Z" style="fill: #202326;"/>
  <path d="M56.706,72.847c0,2.477,2.004,4.599,4.599,4.599h54.067c2.477,0,4.599-2.004,4.599-4.599s-2.004-4.599-4.599-4.599h-54.067c-2.594,0-4.599,2.005-4.599,4.599h0Z" style="fill: #202326;"/>
</svg>