<?xml version="1.0" encoding="UTF-8"?>
<svg id="icon" xmlns="http://www.w3.org/2000/svg" width="128" height="128" viewBox="0 0 128 128">
  <path d="M49.232,33.114v-13.306c0-3.006,2.46-5.466,5.466-5.466h13.324c2.34,0,4.427,1.715,4.643,4.045.247,2.668-1.847,4.899-4.452,4.899h-9.037c-.552,0-1,.448-1,1v16c0,.425-.498.657-.823.382l-7.589-6.409c-.338-.285-.532-.704-.532-1.146Z" style="fill: #202326;"/>
  <path d="M73.321,109.62c-.216,2.327-2.299,4.042-4.636,4.042h-13.987c-3.006,0-5.466-2.46-5.466-5.466v-13.173c0-.438.192-.855.525-1.14l7.594-6.497c.324-.278.825-.047.825.38v15.951c0,.552.448,1,1,1h9.693c2.617,0,4.7,2.233,4.452,4.903Z" style="fill: #202326;"/>
  <path d="M68.909,63.913c0,.944-.385,1.881-1.163,2.564-5.775,5.07-23.165,20.184-23.175,20.194-.484.434-1.004.566-1.58.566-.338,0-.676-.08-1.024-.258-.845-.427-1.451-1.272-1.451-2.206v-9.723c0-.552-.448-1-1-1H10.465c-1.361,0-2.465-1.103-2.465-2.465v-15.245c0-1.356,1.099-2.455,2.455-2.455,0,0,23.725,0,28.91-.007.552,0,.993-.448.993-1v-9.726c0-.666.298-1.282.775-1.739.437-.417,1.043-.646,1.65-.646h.03c.576.02,1.14.21,1.62.606,5.913,4.885,17.491,14.95,23.294,19.965.784.677,1.183,1.62,1.183,2.574Z" style="fill: #202326;"/>
  <path d="M117.96,108.226l-34.523,11.493c-2.574.857-5.231-1.059-5.231-3.772V12.051c0-2.567,2.397-4.461,4.895-3.867l34.607,8.23c1.343.319,2.292,1.52,2.292,2.9v86.083c0,1.284-.822,2.423-2.04,2.829Z" style="fill: #202326; fill-rule: evenodd;"/>
</svg>