<?xml version="1.0" encoding="UTF-8"?>
<svg id="icon" xmlns="http://www.w3.org/2000/svg" width="128" height="128" viewBox="0 0 128 128">
  <path d="M101.564,17c5.203,0,9.436,4.233,9.436,9.436v75.128c0,5.203-4.233,9.436-9.436,9.436H26.436c-5.203,0-9.436-4.233-9.436-9.436V26.436c0-5.203,4.233-9.436,9.436-9.436h75.128M101.564,8H26.436c-10.182,0-18.436,8.254-18.436,18.436v75.128c0,10.182,8.254,18.436,18.436,18.436h75.128c10.182,0,18.436-8.254,18.436-18.436V26.436c0-10.182-8.254-18.436-18.436-18.436h0Z" style="fill: #dfe2e5;"/>
  <path d="M64,97.5h-21.5c-6.617,0-12-5.383-12-12v-21.5c0-2.485,2.015-4.5,4.5-4.5s4.5,2.015,4.5,4.5v21.5c0,1.654,1.346,3,3,3h21.5c2.485,0,4.5,2.015,4.5,4.5s-2.015,4.5-4.5,4.5Z" style="fill: #dfe2e5;"/>
  <path d="M93,68.5c-2.485,0-4.5-2.015-4.5-4.5v-21.5c0-1.654-1.346-3-3-3h-21.5c-2.485,0-4.5-2.015-4.5-4.5s2.015-4.5,4.5-4.5h21.5c6.617,0,12,5.383,12,12v21.5c0,2.485-2.015,4.5-4.5,4.5Z" style="fill: #dfe2e5;"/>
</svg>