<?xml version="1.0" encoding="UTF-8"?>
<svg id="icon" xmlns="http://www.w3.org/2000/svg" width="128" height="128" viewBox="0 0 128 128">
  <path d="M118.674,32.161c-2.067-2.074-22.999-22.999-22.999-22.999-1.037-1.012-2.533-1.399-3.931-1.018-1.398.381-2.491,1.473-2.872,2.872-.381,1.398.006,2.894,1.018,3.931l2.188,2.188c.391.391.391,1.024,0,1.414l-10.156,10.155c-.391.39-1.024.39-1.414,0l-7.973-7.972c-1.041-.995-2.528-1.37-3.915-.986-1.388.383-2.472,1.467-2.856,2.855-.384,1.387-.009,2.874.985,3.915l5.08,5.08c.391.391.391,1.024,0,1.414l-42.688,42.69c-2.574,2.552-4.218,5.894-4.668,9.491-.42,3.347.218,6.734,1.811,9.692.212.393.156.874-.16,1.19l-16.943,16.944c-.739.777-1.147,1.811-1.138,2.884.009,1.072.435,2.099,1.186,2.864.752.765,1.772,1.208,2.844,1.236,1.085,0,2.126-.43,2.892-1.199l16.944-16.943c.316-.316.797-.372,1.19-.16,2.958,1.593,6.345,2.231,9.692,1.811,3.597-.45,6.939-2.094,9.491-4.668l42.688-42.688c.39-.39,1.024-.391,1.414,0l5.082,5.08c.766.768,1.807,1.2,2.892,1.199,1.072-.028,2.092-.471,2.844-1.236.752-.765,1.177-1.792,1.186-2.865.009-1.072-.398-2.106-1.137-2.884l-7.974-7.973c-.391-.391-.391-1.024,0-1.414l10.155-10.155c.391-.391,1.024-.391,1.414,0l2.188,2.188h0c.766.768,1.807,1.199,2.893,1.198,1.072-.027,2.092-.47,2.844-1.235.71-.722,1.119-1.678,1.182-2.683.047-.757.007-1.923-1.278-3.212ZM84.872,54.68c-.39.39-1.024.391-1.414,0l-1.834-1.834c-1.037-1.012-2.533-1.399-3.931-1.018-1.398.381-2.491,1.474-2.872,2.872-.381,1.398.006,2.894,1.018,3.931l1.834,1.834c.391.391.391,1.024,0,1.414l-5.074,5.073c-.39.39-1.024.39-1.414,0l-1.834-1.834c-1.037-1.012-2.533-1.399-3.931-1.018-1.398.381-2.491,1.474-2.872,2.872-.381,1.398.006,2.894,1.018,3.931l1.834,1.834c.391.391.391,1.024,0,1.414l-5.074,5.073c-.39.39-1.024.39-1.414,0l-1.834-1.834c-1.037-1.012-2.533-1.399-3.931-1.018-1.398.381-2.491,1.474-2.872,2.872-.381,1.398.006,2.894,1.018,3.931l1.834,1.834c.391.391.391,1.024,0,1.414l-6.629,6.629h0c-1.559,1.488-3.63,2.319-5.785,2.319s-4.227-.831-5.785-2.32c-1.535-1.534-2.397-3.615-2.397-5.785s.862-4.251,2.397-5.785l42.685-42.685c.391-.391,1.024-.391,1.414,0l10.156,10.156c.391.391.391,1.024,0,1.414l-4.31,4.31ZM92.078,40.275l-4.371-4.37c-.391-.391-.391-1.024,0-1.414l10.156-10.156c.391-.391,1.024-.391,1.414,0l4.371,4.371c.391.391.391,1.024,0,1.414l-10.156,10.155c-.391.39-1.024.39-1.414,0Z" style="fill: #202326;"/>
</svg>