<?xml version="1.0" encoding="UTF-8"?>
<svg id="icon" xmlns="http://www.w3.org/2000/svg" width="128" height="128" viewBox="0 0 128 128">
  <path d="M111.386,58.698l-26.049-12.845c-.99-.488-2.149.232-2.149,1.336v6.59c0,.567.322,1.085.831,1.336l23.433,11.558c.904.447,1.043,1.242,1.043,1.679s-.129,1.222-1.033,1.679l-41.457,20.589c-1.232.616-2.712.616-3.943,0l-41.516-20.47c-.904-.447-1.043-1.242-1.043-1.669,0-.437.139-1.232,1.043-1.679l23.437-11.647c.507-.252.827-.769.827-1.334v-6.596c0-1.106-1.162-1.826-2.152-1.334l-26.075,12.946c-3.695,1.828-5.979,5.532-5.979,9.654.01,4.132,2.314,7.817,6.009,9.644l41.507,20.47c1.857.914,3.883,1.371,5.91,1.371s4.072-.467,5.929-1.39l41.457-20.589c3.695-1.837,5.979-5.532,5.979-9.654-.01-4.132-2.314-7.827-6.009-9.644Z" style="fill: #202326;"/>
  <path d="M113.189,87.21l-47.2,23.433c-1.245.623-2.683.625-3.938.009l-47.253-23.313c-2.203-1.082-4.873-.183-5.958,2.022-1.088,2.203-.183,4.869,2.022,5.96l47.258,23.315c1.851.91,3.875,1.364,5.897,1.364,2.045,0,4.087-.465,5.942-1.394l47.187-23.426c2.203-1.093,3.102-3.762,2.006-5.964-1.094-2.2-3.766-3.106-5.964-2.004h0Z" style="fill: #202326;"/>
  <path d="M61.333,9.185c1.347-1.572,3.776-1.582,5.136-.021l20.157,23.123c.426.512.593,1.018.593,1.617,0,.339-.08.679-.253,1.018-.426.852-1.278,1.45-2.21,1.45h-9.714c-.552,0-1,.448-1,1v29.042c0,1.36-1.103,2.463-2.463,2.463h-15.232c-1.36,0-2.463-1.103-2.463-2.463v-28.875c0-.552-.448-1-1-1h-9.721c-.663,0-1.282-.298-1.741-.779-.425-.446-.655-1.06-.641-1.676.013-.582.216-1.139.598-1.625l19.953-23.274Z" style="fill: #202326;"/>
</svg>