<?xml version="1.0" encoding="UTF-8"?>
<svg id="icon" xmlns="http://www.w3.org/2000/svg" width="128" height="128" viewBox="0 0 128 128">
  <path d="M111.71,57.659l-16.57-8.173c-.656-.323-1.44-.12-1.872.469-.068.092-3.9,4.596-3.9,4.596-.637.744-.403,1.889.476,2.322l17.907,8.826c.91.44,1.05,1.25,1.05,1.68,0,.44-.13,1.24-1.04,1.69l-41.74,20.73c-1.24.62-2.73.62-3.97,0l-41.8-20.61c-.91-.44-1.05-1.24-1.05-1.68s.14-1.24,1.05-1.69l17.879-8.876c.88-.437,1.109-1.588.464-2.329,0,0-3.792-4.381-3.919-4.552-.436-.589-1.215-.804-1.871-.478l-16.543,8.215c-3.72,1.84-6.02,5.57-6.02,9.73.01,4.15,2.33,7.87,6.05,9.7l41.79,20.61c1.87.92,3.91,1.38,5.95,1.38s4.1-.47,5.97-1.4l41.74-20.73c3.72-1.84,6.02-5.57,6.02-9.72-.01-4.15-2.33-7.88-6.05-9.71Z" style="fill: #202326;"/>
  <path d="M113.525,86.368l-47.522,23.593c-1.254.627-2.701.629-3.965.009l-47.576-23.472c-2.218-1.089-4.906-.184-5.999,2.036-1.095,2.218-.184,4.903,2.036,6.001l47.581,23.474c1.864.916,3.902,1.373,5.938,1.373,2.059,0,4.115-.468,5.983-1.404l47.509-23.586c2.218-1.1,3.123-3.788,2.02-6.005-1.102-2.215-3.792-3.127-6.005-2.018h0Z" style="fill: #202326;"/>
  <path d="M87.38,43.659c-.022.576-.222,1.133-.61,1.62l-.05.06-20.04,23.38c-.68.79-1.63,1.19-2.59,1.19-.95,0-1.89-.39-2.58-1.17l-20.29-23.28c-.01-.01-.02-.03-.03-.04-.41-.51-.57-1.01-.57-1.59,0-.34.08-.68.26-1.03.43-.85,1.28-1.46,2.22-1.46h9.79c.552,0,1-.448,1-1V11.099c0-1.37,1.11-2.48,2.48-2.48h15.34c1.36,0,2.47,1.11,2.47,2.48v29.08c0,.552.448,1,1,1h9.8c.748,0,1.434.374,1.904.955.352.435.517.966.495,1.525Z" style="fill: #202326;"/>
</svg>