<?xml version="1.0" encoding="UTF-8"?>
<svg id="icon" xmlns="http://www.w3.org/2000/svg" width="128" height="128" viewBox="0 0 128 128">
  <path d="M118.465,64.511c0,15.102-5.881,29.293-16.56,39.962-7.763,7.764-17.531,13.068-28.23,15.325-.638.142-1.265.202-1.893.202-4.211,0-7.996-2.935-8.897-7.227-1.042-4.919,2.095-9.758,7.025-10.79,7.237-1.539,13.847-5.132,19.12-10.395,7.227-7.227,11.215-16.843,11.215-27.076,0-21.114-17.177-38.292-38.292-38.292-2.672,0-5.355.281-7.966.83-6.906,1.453-13.205,4.681-18.406,9.684-.402.386-.4,1.036-.006,1.431l6.053,6.062c.425.425.628,1.002.618,1.599-.02.547-.263,1.083-.658,1.468-.375.354-.86.577-1.407.648l-27.37,2.085c-1.852.142-3.391-1.387-3.269-3.239l1.893-27.4c.061-.597.273-1.022.648-1.397.223-.213.486-.385.81-.486.81-.273,1.731-.111,2.318.486l5.969,5.969c.392.392,1.027.381,1.417-.013,8.337-8.41,17.233-12.516,27.636-14.722,3.847-.816,7.794-1.225,11.721-1.225,31.166,0,56.511,25.345,56.511,56.511Z" style="fill: #202326;"/>
</svg>