<?xml version="1.0" encoding="UTF-8"?>
<svg id="icon" xmlns="http://www.w3.org/2000/svg" width="128" height="128" viewBox="0 0 128 128">
  <path d="M117.329,103.959l-26.184-26.184c-.328-.328-.38-.834-.136-1.228,5.693-9.175,7.891-20.106,6.173-30.785-1.759-10.94-7.504-20.841-16.126-27.8-8.623-6.958-19.515-10.479-30.579-9.887-11.064.593-21.518,5.258-29.349,13.096-7.831,7.838-12.485,18.297-13.066,29.361-.581,11.065,2.951,21.953,9.917,30.57,6.967,8.616,16.874,14.35,27.814,16.099,10.679,1.706,21.607-.502,30.776-6.203.395-.245.903-.193,1.231.136l26.168,26.182c2.625,2.604,6.652,3.47,10.297,1.863,1.048-.462,1.978-1.157,2.788-1.966l.164-.164c.81-.81,1.506-1.74,1.969-2.788,1.612-3.644.746-7.677-1.859-10.303h.003ZM77.041,77.055c-6.41,6.412-15.104,10.014-24.17,10.015-9.066,0-17.761-3.6-24.173-10.01-6.411-6.411-10.012-15.105-10.012-24.17s3.601-17.761,10.012-24.17c6.412-6.411,15.106-10.011,24.173-10.01,9.066,0,17.761,3.603,24.17,10.015,6.408,6.41,10.007,15.102,10.007,24.166s-3.599,17.757-10.007,24.168v-.002Z" style="fill: #dfe2e5;"/>
  <path d="M66.077,46.776h-5.834c-.552,0-1-.448-1-1v-5.982c.004-1.35-.533-2.647-1.491-3.599-.957-.952-2.257-1.483-3.607-1.471h-2.246c-1.347-.011-2.642.52-3.594,1.474-.951.953-1.479,2.25-1.465,3.597v5.995c0,.552-.448,1-1,1h-6.049c-1.362-.004-2.672.531-3.643,1.489-.969.957-1.522,2.259-1.536,3.623v2.219c.032,1.352.591,2.639,1.559,3.584.968.945,2.267,1.474,3.62,1.473h6.008c.552,0,1,.448,1,1v5.847c-.011,1.352.525,2.652,1.484,3.603.96.952,2.263,1.477,3.615,1.455h2.233,0c1.348.01,2.646-.518,3.603-1.468s1.496-2.243,1.496-3.591v-5.847c0-.552.448-1,1-1h5.834,0c1.351.004,2.647-.533,3.6-1.49.952-.958,1.483-2.257,1.471-3.608v-2.179c.022-1.355-.502-2.66-1.453-3.625-.951-.964-2.25-1.504-3.604-1.5h0Z" style="fill: #dfe2e5;"/>
</svg>